<?xml version="1.0" encoding="utf-8"?>
<!-- Generator: Adobe Illustrator 26.3.1, SVG Export Plug-In . SVG Version: 6.00 Build 0)  -->
<svg version="1.1" id="Layer_1" xmlns="http://www.w3.org/2000/svg" xmlns:xlink="http://www.w3.org/1999/xlink" x="0px" y="0px"
	 viewBox="0 0 144.09 94.26" style="enable-background:new 0 0 144.09 94.26;" xml:space="preserve">
<style type="text/css">
	.st0{fill:#FFFFFF;}
</style>
<g>
	<g>
		<path class="st0" d="M105.02,89.24c-1.16-1.25-2.42-3.44-3.79-6.59L72.82,16.66h-0.71c0,0.06-0.03,0.12-0.09,0.18
			c-0.18,0.53-0.7,1.87-1.56,4.01c-0.86,2.14-1.91,4.8-3.16,7.97c-1.25,3.18-2.63,6.71-4.14,10.6c-1.51,3.89-3.07,7.82-4.67,11.8
			c-3.68,9.38-7.84,19.83-12.47,31.35c-0.95,2.14-2,3.96-3.16,5.48c-1.16,1.51-2.6,2.75-4.32,3.7v0.71
			c1.42-0.12,2.67-0.21,3.74-0.27c1.07-0.06,2.17-0.09,3.3-0.09c0.83,0,1.72,0.03,2.67,0.09c0.95,0.06,2.08,0.15,3.38,0.27v-0.71
			c-2.55-0.77-4.11-2.09-4.68-3.96c-0.57-1.87-0.43-3.9,0.4-6.1c0.3-0.77,0.7-1.78,1.2-3.03c0.5-1.25,1.07-2.67,1.69-4.27
			s1.31-3.34,2.05-5.21c0.74-1.87,1.5-3.82,2.27-5.83c0.07,0,0.14,0,0.2,0c0.14-0.32,0.27-0.65,0.41-0.97
			c-0.06-0.01-0.11-0.01-0.17-0.01c1.19-3.03,2.4-6.09,3.65-9.17s2.42-6.01,3.52-8.77c1.1-2.76,2.06-5.22,2.89-7.39
			c0.83-2.17,1.48-3.81,1.96-4.94c0.71,1.66,1.35,3.13,1.92,4.41c0.56,1.28,1.17,2.67,1.82,4.19c0.65,1.51,1.39,3.27,2.23,5.25
			c0.83,1.99,1.91,4.51,3.25,7.57c1.34,3.06,2.95,6.81,4.85,11.27c1.9,4.45,4.21,9.86,6.95,16.21c0,0.06,0.03,0.12,0.09,0.18
			c0.06,0.06,0.09,0.12,0.09,0.18c0,0.06,0.03,0.15,0.09,0.27c0.47,1.25,0.82,2.45,1.02,3.61c0.21,1.16,0.19,2.2-0.04,3.12
			c-0.24,0.92-0.7,1.68-1.38,2.27c-0.65,0.56-1.55,0.85-2.7,0.88c-0.04,0.34-0.02,0.54,0.01,0.88c2.49-0.18,4.48-0.18,6.38-0.24
			c1.9-0.06,3.71-0.09,5.43-0.09c1.72,0,3.48,0.03,5.3,0.09c1.81,0.06,3.87,0.18,6.19,0.36v-0.71
			C107.34,91.32,106.17,90.48,105.02,89.24z"/>
	</g>
	<g>
		<path class="st0" d="M100.72,75.25c-17.45-6.57-34.64-11.16-47.27-25.89c-2.27-2.65-4.35-5.49-7.05-7.7s-6.18-3.74-9.63-3.2
			c4.16-1.44,8.63-1.71,12.93-2.65s8.71-2.75,11.23-6.36c2.3-3.29,2.68-7.58,2.19-11.57c-0.42-3.39-1.47-6.82-3.73-9.38
			c-3.57-4.03-9.36-5.12-14.71-5.69C30.78,1.34,16.75,1.8,2.77,2.27c2.35,0.1,4.61,1.47,5.78,3.5c1.23,2.13,1.26,4.71,1.26,7.17
			c0,18.56-0.01,37.11-0.01,55.67c0,1.68-0.01,3.41-0.65,4.96c-0.88,2.13-2.99,3.7-5.28,3.93c7.75-0.01,15.51-0.02,23.26-0.02
			c-2.07-0.13-4.02-1.43-4.93-3.29c-0.67-1.35-0.79-2.89-0.88-4.39c-0.26-4.54-0.26-9.1,0.03-13.64c0.2-3.14,0.55-6.37,2.01-9.16
			c1.47-2.79,4.29-5.07,7.44-5.03c4.3,0.06,7.32,4.06,9.86,7.52c7.2,9.82,16.37,18.68,27.78,22.95c7.23,2.7,13.36,4.3,21.05,5.02
			c8.59,0.8,18.89,0.75,27.48-0.1c6.95-0.69,14.16-2.67,19.05-7.65c6.1-6.21,7.14-16.87,2.08-23.95c-2.57-3.59-6.37-6.13-10.39-7.95
			c-8.29-3.76-17.6-4.75-26-8.25c-2.72-1.13-5.42-2.6-7.19-4.96c-2.76-3.68-2.63-9.06-0.31-13.03s6.51-6.63,10.95-7.84
			c6.37-1.74,13.51-0.64,18.93,3.13s8.94,10.23,8.93,16.83c2.22-4.98,3.95-10.18,5.14-15.51c-11.69-6.15-25.68-7.81-38.49-4.55
			c-5.12,1.3-10.24,3.5-13.64,7.54c-3.69,4.4-4.86,10.78-2.96,16.2c2.53,7.22,9.67,11.81,16.86,14.44
			c7.19,2.62,14.89,3.86,21.75,7.25c3.32,1.64,6.52,3.91,8.16,7.23c2.37,4.79,0.78,10.92-2.95,14.74c-4.5,4.6-11.1,5.85-17.29,5.85
			C106.32,76.9,103.36,76.35,100.72,75.25C100.43,75.13,101.01,75.38,100.72,75.25 M31.94,37.58c-2.23,1.1-4.31,2.57-6.23,4.41
			c-1.93,1.84-3.43,4.45-4.5,7.84V2.98h11.76c2.49,0,4.9,0.28,7.21,0.85c2.32,0.57,4.36,1.53,6.14,2.89
			c1.78,1.37,3.19,3.18,4.23,5.43c1.04,2.26,1.5,5.08,1.38,8.46c-0.12,3.21-0.8,5.7-2.05,7.48c-1.25,1.78-2.84,3.19-4.77,4.23
			c-1.93,1.04-4.05,1.9-6.37,2.58C36.44,35.59,34.17,36.48,31.94,37.58z"/>
	</g>
</g>
</svg>
